<?xml version="1.0" encoding="utf-8"?>
<!-- Generator: Adobe Illustrator 21.0.0, SVG Export Plug-In . SVG Version: 6.00 Build 0)  -->
<svg version="1.1" id="Layer_1" xmlns="http://www.w3.org/2000/svg" xmlns:xlink="http://www.w3.org/1999/xlink" x="0px" y="0px"
	 viewBox="0 0 340.3 245" style="enable-background:new 0 0 340.3 245;" xml:space="preserve">
<style type="text/css">
	.st0{fill:#EBEBEB;}
	.st1{fill:#DBDBDB;}
	.st2{fill:#A6A6A6;}
	.st3{fill:#FFFFFF;}
	.st4{fill:#FFC727;}
	.st5{fill:#263238;}
	.st6{fill:#D3766A;}
	.st7{fill:#455A64;}
	.st8{fill:#37474F;}
</style>
<title>bgimage</title>
<g id="Background_Complete">
	<path class="st0" d="M304.1,109.8l8.3-13.4l-4.1-2.5c-1.2-0.8-1.9-2.1-1.7-3.5c0.1-0.8,0.1-1.5,0.1-2.3c0-1.4,0.7-2.8,2-3.4
		l4.2-2.3l-7.4-13.9l-4.3,2.3c-1.2,0.7-2.7,0.6-3.8-0.2c-0.7-0.5-1.4-0.9-2.1-1.3c-1.2-0.7-2-2-1.9-3.4l0.2-4.8l-15.7-0.5l-0.2,4.8
		c0,1.4-0.9,2.6-2.1,3.2c-0.4,0.2-0.7,0.4-1.1,0.5c-0.4,0.2-0.7,0.4-1.1,0.6c-1.2,0.7-2.7,0.7-3.8,0l-4.1-2.5l-8.3,13.4l4.1,2.6
		c1.2,0.8,1.8,2.1,1.7,3.5c-0.1,0.8-0.1,1.5-0.1,2.3c0,1.4-0.7,2.8-2,3.4l-4.3,2.3l7.4,13.9l4.3-2.3c1.3-0.7,2.8-0.6,3.9,0.3
		c0.6,0.4,1.3,0.8,2,1.2c1.2,0.7,2,2,2,3.4l-0.2,4.9l15.7,0.5l0.2-4.8c0.1-1.4,0.9-2.7,2.2-3.2c0.4-0.2,0.7-0.3,1-0.5
		c0.3-0.2,0.6-0.4,1-0.6c1.2-0.7,2.7-0.7,3.9,0L304.1,109.8z M292.2,99c-5.8,4.2-13.8,2.8-18-3c-4.2-5.8-2.8-13.8,3-18
		s13.8-2.8,18,3c0.7,0.9,1.2,1.9,1.6,3C298.8,89.5,296.9,95.6,292.2,99z"/>
	<path class="st0" d="M217.2,141.6l9.5-5.5l-1.7-2.9c-0.5-0.9-0.5-1.9,0.1-2.8c0.3-0.5,0.6-0.9,0.8-1.4c0.4-0.9,1.3-1.4,2.3-1.5h3.4
		v-11h-3.4c-1,0-1.9-0.6-2.3-1.5c-0.2-0.5-0.5-1-0.8-1.4c-0.5-0.8-0.6-1.9-0.1-2.8l1.7-2.9l-9.5-5.5l-1.7,2.9
		c-0.5,0.9-1.4,1.3-2.4,1.3h-0.8h-0.8c-1,0.1-1.9-0.4-2.4-1.3l-1.7-2.9l-9.5,5.5l1.7,2.9c0.5,0.9,0.5,1.9-0.1,2.8
		c-0.3,0.5-0.6,0.9-0.8,1.4c-0.4,0.9-1.3,1.4-2.3,1.5h-3.4v11h3.4c1,0,1.9,0.6,2.3,1.5c0.2,0.5,0.5,1,0.8,1.4
		c0.6,0.8,0.6,1.9,0.1,2.8l-1.7,2.9l9.5,5.5l1.7-2.9c0.5-0.8,1.4-1.3,2.4-1.3h0.8h0.8c1-0.1,1.9,0.4,2.4,1.3L217.2,141.6z
		 M212.3,131.1c-5,0-9-4-9-9s4-9,9-9s9,4,9,9C221.3,127,217.2,131.1,212.3,131.1L212.3,131.1z"/>
</g>
<g id="Chair_2">
	<polygon class="st1" points="28.5,219.5 140.4,219.5 118.1,89.7 34.4,89.7 	"/>
	<polygon class="st2" points="28.5,219.5 38.3,219.5 43.8,89.7 34.4,89.7 	"/>
</g>
<g id="Windows">
	<rect x="177.3" y="16.2" class="st3" width="103.1" height="65.8"/>
	<path class="st0" d="M281.1,82.6H176.7V15.6h104.4V82.6z M178,81.3h101.8V16.9H178V81.3z"/>
	<rect x="177.3" y="16.2" class="st4" width="103.1" height="12.4"/>
	<path class="st0" d="M281.1,29.3H176.7V15.6h104.4V29.3z M178,28h101.8V16.9H178V28z"/>
	<circle class="st2" cx="185.9" cy="22.5" r="3.1"/>
	<circle class="st0" cx="198.6" cy="22.5" r="3.1"/>
	<circle class="st3" cx="211.4" cy="22.5" r="3.1"/>
	<polygon class="st5" points="249,93.1 253.4,103.7 249,105.6 244.6,94.9 237.4,100.5 237.4,70.6 258.3,91.8 	"/>
	<path class="st5" d="M237.4,67.4c-0.2-0.5-0.3-1-0.3-1.5c0-0.5,0.1-1,0.3-1.5c0.2,0.5,0.3,1,0.3,1.5
		C237.6,66.4,237.6,66.9,237.4,67.4z"/>
	<path class="st5" d="M234.8,68.4c-0.5-0.2-0.9-0.5-1.3-0.9c-0.4-0.4-0.7-0.8-0.9-1.3c0.5,0.2,0.9,0.5,1.3,0.9
		C234.3,67.5,234.6,68,234.8,68.4z"/>
	<path class="st5" d="M233.7,71c-0.5,0.2-1,0.3-1.5,0.3c-0.5,0-1-0.1-1.5-0.3c0.5-0.2,1-0.3,1.5-0.2C232.7,70.8,233.2,70.8,233.7,71
		z"/>
	<path class="st5" d="M234.8,73.6c-0.2,0.5-0.5,0.9-0.9,1.3c-0.4,0.4-0.8,0.7-1.3,0.9c0.2-0.5,0.5-0.9,0.9-1.3
		C233.9,74.1,234.3,73.8,234.8,73.6z"/>
	<path class="st5" d="M241,71c0.5-0.2,1-0.3,1.5-0.3c0.5,0,1,0.1,1.5,0.3c-0.5,0.2-1,0.3-1.5,0.3C242,71.3,241.5,71.2,241,71z"/>
	<path class="st5" d="M240,68.4c0.2-0.5,0.5-0.9,0.9-1.3c0.4-0.4,0.8-0.7,1.3-0.9c-0.2,0.5-0.5,0.9-0.9,1.3
		C240.9,67.9,240.4,68.2,240,68.4z"/>
</g>
<g id="Character_2">
	<path class="st5" d="M90.5,29.6c-13.8,11.8-9.9,29-15.7,38.3c-3.5,5.7-15,11.7-17.2,18.3C53.9,97.1,63,101,61,106.9
		c-2.9,8.3-14,7.7-16.1,21.3s13,28.1,48.5,32s55.1-9.1,56.4-20.6s-10.5-15.4-11.4-24c-0.5-5.5,6.8-9.4,7.2-19.5s-9.5-13.5-10.9-22.1
		s3.1-29.6-9.5-40.3S97.3,23.8,90.5,29.6z"/>
	<path class="st5" d="M92.1,29.9c-3.9,2.7-7,6.3-9.1,10.6c-2.2,4.5-3.9,9.2-5.1,14c-0.6,2.9-1.5,5.7-2.8,8.4
		c-1.2,2.2-2.8,4.2-4.8,5.9c-3.9,3.5-8.4,6.1-11.9,10c-3.3,3.7-5.8,8.7-4.5,13.7c0.7,2.7,2.5,5,3.6,7.5s1.5,5.4-0.6,7.5
		c-1.8,1.7-4.4,2.5-6.4,3.9c-2,1.4-3.7,3.1-5.2,5c-3,3.9-4.2,8.9-3.3,13.7c2.1,11.1,12.5,17.4,22,21.3c1.3,0.5,2.7,1.1,4,1.6
		c0.2,0.1,0.4-0.2,0.2-0.3c-9.6-4.3-20.8-9.4-24.5-20.1c-1.7-4.8-1.1-10,1.7-14.3c1.4-2.1,3.1-3.9,5.1-5.4c1.9-1.4,4.2-2.3,6.1-3.7
		c2-1.3,3.1-3.5,3-5.8c-0.1-2.6-1.4-4.9-2.6-7.1s-2.5-4.7-2.3-7.5c0.3-2.6,1.3-5,2.9-7.1c3-4.2,7.4-7,11.4-10.2s7.2-7,8.6-12
		c0.7-2.5,1.2-5.1,1.8-7.7c0.6-2.4,1.3-4.7,2.1-7c1.6-4.6,4.1-8.9,7.5-12.4c0.9-0.9,1.9-1.7,2.9-2.4C92.4,30.1,92.2,29.9,92.1,29.9z
		"/>
	<path class="st5" d="M151.4,131.1c-0.4-1.9-1.3-3.7-2.5-5.2c-1.2-1.6-2.7-2.9-4.1-4.3c-1.4-1.3-2.4-3-2.9-4.8
		c-0.5-2.3,0.5-4.5,1.6-6.4c1.2-2,2.3-4.1,3.2-6.2c0.8-2.1,1.2-4.4,1.4-6.6c0.2-4.7-1.1-9.3-3.6-13.2c-1.2-2-2.6-3.9-3.8-5.9
		c-1.4-2.2-2.4-4.5-3.1-6.9c-1.6-5.4-2-11-3.3-16.4c-1.4-5.6-3.3-11-5.8-16.1c-0.1-0.1-0.3,0-0.2,0.1c2.2,4.7,3.8,9.6,5,14.6
		c1.1,4.8,1.6,9.6,2.4,14.4c0.4,2.4,1,4.7,1.8,6.9c0.8,2.1,1.9,4.1,3.1,5.9c2.4,3.9,4.9,7.8,5.5,12.4c0.7,4.6-0.1,9.2-2.3,13.3
		c-1.9,3.5-4.5,7.4-2.9,11.6c1.4,3.5,4.7,5.6,6.9,8.5c2.4,3.2,3.3,7.3,2.4,11.2c-1.9,10-11.9,14.9-21.2,15.4c-0.1,0-0.2,0.1-0.2,0.3
		c0,0.1,0.1,0.2,0.2,0.2c8.1-0.1,17-3.7,20.8-11.3C151.7,139,152.2,135,151.4,131.1z"/>
	<path class="st6" d="M102.8,119.5c9,35.8,17.9,63.1,28.1,69.8c8.2,5.4,19.8,9.2,31.6,11.9c12.7,2.7,25.6,4.5,38.5,5.5
		c4,0.3,7.3,0.5,9.7,0.7c5.8,0.4,15.4-38.1,11.2-42.8c-1-1.1-4.8-1.9-10.2-2.6c-18.1-2.3-53.8-2.8-56-4.8s-20.4-27.6-36-47.6
		C109.1,95.7,97.8,99.6,102.8,119.5z"/>
	<path class="st6" d="M199,203.5c0.7,0.3,11,4.8,17.3,6.4c4.7,1.2,18.4,4.2,20.2-0.9c1.2-3.5-6.6-6.2-12.1-8.2
		c-2.9-1.1-6.5-3.9-5.7-5.8c1.3-3.3,8.8-0.3,13.7,2.3c9.5,5.1,22.3,14.4,27.8,9.4c2.1-1.9-0.5-5-4.3-8.1c6.1,3.5,12.5,6.3,14.9,4.3
		c1.4-1.1,1.4-2.6,0.5-4.3c1.8,0.5,3.5,0.4,4.5-0.9c1.8-2.1,0.8-5-1.4-8c0.7-0.1,1.4-0.6,1.7-1.2c3.8-6.4-17.2-23.5-24.4-24.9
		c-21-4.2-43-1.6-43-1.6C200.9,169,199,203.5,199,203.5z"/>
	<path class="st5" d="M228.9,183c5,0.5,9.8,2.2,14.1,4.8c5,3.1,9,7.6,13.6,11.2c0.1,0.1,0,0.3-0.2,0.2c-2.2-1.9-4.6-3.5-6.8-5.3
		s-4.4-3.6-6.7-5.1C238.8,185.8,234,183.8,228.9,183C228.8,183,228.8,183,228.9,183z"/>
	<path class="st5" d="M232.5,174c5.5,1.3,11.2,2.6,16.3,5c5.7,2.6,10.2,7.1,14.6,11.4c2.7,2.6,5.3,5.2,7.8,7.9
		c0.1,0.1,0,0.3-0.2,0.2c-4.5-4.4-9.1-8.7-13.9-12.9c-4.4-3.9-9.5-6.8-15-8.7C239,175.8,235.7,174.9,232.5,174
		C232.4,174.1,232.4,174,232.5,174z"/>
	<path class="st5" d="M238,166.1c5.3,0.9,10,1.7,14.8,4.3c6.4,3.5,12.6,9.7,14.8,11.8c2.4,2.4,4.8,4.9,7.1,7.4
		c0.1,0.1-0.1,0.3-0.2,0.2c-5.3-5.5-10.9-10.7-16.8-15.4c-2.8-2.3-5.9-4.2-9.3-5.5C245,167.6,241.5,166.7,238,166.1L238,166.1z"/>
	<path class="st4" d="M109.4,155.5l32.1-19c0,0-13.7-22.2-25.4-32.6s-16.5-2.3-14.7,13S109.4,155.5,109.4,155.5z"/>
	<path class="st5" d="M136.5,131.8c-5.1,2.6-18.9,10.2-27.2,16.3c0,0,0.1,0.3,0.1,0.2c7.7-4,22.3-13.1,27.2-16.2
		C136.8,132,136.6,131.7,136.5,131.8z"/>
	<path class="st5" d="M138.9,138.1l-29.5,17.4c0,0-6.2-23.4-8-38.6c-1.1-9.8,0.4-16.7,4.8-17.5L138.9,138.1z"/>
	<path class="st4" d="M140.5,219.4H34.2c0,0,23.1-89.1,44.4-114.2c0.5-0.6,1-1.1,1.5-1.6c0.1-0.1,0.2-0.2,0.3-0.3
		c1.7-1.8,3.6-3.3,5.7-4.4c0.4-0.2,0.8-0.4,1.1-0.6c8.2-3.8,16.9-0.6,23.2,4.7c2,1.7,24.5,31,26.5,42.2c1.7,9.9-4.9,20.5-4.9,20.5
		L140.5,219.4z"/>
	<path class="st5" d="M116.1,161.8c-4.5,0.4-9,1.2-13.4,2.3c-2.2,0.6-4.3,1.3-6.5,2c-1.1,0.4-2.1,0.7-3.2,1
		c-1.1,0.4-2.3,0.6-3.5,0.7c0,0-0.1,0-0.1,0.1c0,0,0,0.1,0.1,0.1c1.1,0,2.2,0,3.3-0.1c1.1-0.1,2.1-0.3,3.2-0.6
		c2.2-0.6,4.4-1.2,6.6-1.8c4.5-1.2,8.9-2.4,13.5-3.3C116.3,162.1,116.3,161.8,116.1,161.8z"/>
	<path class="st5" d="M127.3,165.7c-3.7-0.4-7.5-0.5-11.2-0.4c-1.9,0-3.7,0.2-5.6,0.4c-0.9,0.1-1.8,0.2-2.7,0.3s-1.9,0.4-2.9,0.5
		c-0.1,0-0.1,0.2,0,0.2c0.9-0.1,1.9,0,2.8,0l2.8-0.1c1.9-0.1,3.7-0.1,5.6-0.2c3.7-0.2,7.5-0.3,11.2-0.3
		C127.5,166,127.5,165.8,127.3,165.7z"/>
	<path class="st6" d="M72.6,110.4c-20,28.1-46,77-32.6,86c22,14.8,82.3,18.7,96.1,19.1c6,0.1,14.1-39.5,9.7-44.1s-67.6-2.1-68.4-6
		c-0.5-2.2,7.3-22.1,11.2-46.1C93.1,91.7,78.2,102.4,72.6,110.4z"/>
	<path class="st6" d="M135.2,169.1c0,0,18-1.9,29.9-2.5c6.6-0.4,18,0,23,2c7.5,2.9,36.7,19.9,32.8,27.1
		c-3.6,6.5-26.9-11.3-26.9-11.3s25.1,15.9,19.3,22.9s-29.4-16.6-29.4-16.6s25.4,16.9,18.3,23.2c-5.4,4.8-28-15.4-28-15.4
		s21.8,14.6,16.5,19.8c-5.8,5.7-27.9-11.6-27.9-11.6c-15.7,10.8-27.5,9.6-35.9,7.7C124.8,214,135.2,169.1,135.2,169.1z"/>
	<path class="st5" d="M185.6,178.4c3,1.8,6.1,3.5,8.9,5.5s5.6,4.1,8.3,6.4c3.5,2.9,6.7,6.2,9.5,9.8c-5.4-6.1-15.5-13.5-18.3-15.5
		S188.3,180.5,185.6,178.4C185.4,178.4,185.5,178.3,185.6,178.4z"/>
	<path class="st5" d="M178.1,188.5c3.8,2.4,7.6,4.7,11.2,7.2s8.6,6.3,12,9.1c0.3,0.2,0.1,0.7-0.2,0.5c-3.5-2.7-8.8-6.3-12.4-8.9
		s-7.1-5.4-10.7-7.9C178,188.6,178.1,188.5,178.1,188.5z"/>
	<path class="st5" d="M170.2,196.1c5.9,3.4,11.2,7.9,16.3,12.4c0.3,0.2,0,0.3-0.3,0.1c-5.3-4.2-9.5-7.6-16.1-12.3
		C169.9,196.2,170,196,170.2,196.1z"/>
	<path class="st5" d="M132.6,168.8c8.2-0.8,32.4-3.2,40.7-3.4c7.3-0.1,13.5,0.9,19.9,4.3c13.9,7.4,23.3,16.8,25.7,19.6
		c1.4,1.7,3.6,4.5,2.1,6.6c-1.8,2.7-9.6,1-18.3-5.5c-0.3-0.2-0.2-0.4,0.2-0.2c12.1,8,16.5,6.6,17.5,4.9c0.7-1.1-0.2-2.8-1-4
		c-1.3-1.8-2.8-3.5-4.5-4.9c-5.7-5-11.8-9.5-18.4-13.3c-7.1-4.3-15.3-6.5-23.5-6.4c-8.5,0.1-31.7,2.5-40.2,2.5
		C132.4,169.1,132.4,168.8,132.6,168.8z"/>
	<path class="st5" d="M214.3,203.6c-0.7-2.2-2.5-4.1-4-5.8c-1.8-2.2-3.8-4.2-6-6c-0.1-0.1-0.2,0-0.1,0.1c1.9,1.8,3.6,3.7,5.3,5.8
		c0.9,1.1,1.7,2.3,2.4,3.5c0.7,1.2,1.5,2.5,1.4,4c-0.3,2.7-3.7,3-5.8,2.5c-1.3-0.4-2.7-0.9-3.9-1.5c-1.7-0.9-3.4-1.9-4.9-3
		c-0.1-0.1-0.5,0-0.3,0.1c3.3,2.6,9.5,8,13.9,5.4C214.1,207.6,214.9,205.5,214.3,203.6z"/>
	<path class="st4" d="M47.6,139.7l35.1,12.6c0,0,8.3-24.7,8.9-40.4s-8.8-14.1-19.3-3S47.6,139.7,47.6,139.7z"/>
	<path class="st5" d="M83.2,145.4c-5.3-2.3-19.9-8-29.9-10.5c-0.1,0-0.1,0.2-0.1,0.2c8,3.3,24.4,8.8,29.9,10.6
		C83.2,145.8,83.3,145.4,83.2,145.4z"/>
	<path class="st5" d="M90,132.1C90,132,89.9,132,90,132.1c-0.7,1.2-1.3,2.4-1.8,3.7c0.6-2.7,1.2-5.5,1.6-8.3c0,0-0.1-0.1-0.1,0
		c0,0,0,0,0,0c-2.4,8.1-4.9,16.1-7.1,24.3c-0.9,0-1.8-0.1-2.7-0.2c-0.1,0-0.1,0.1-0.1,0.1c0,0,0,0.1,0.1,0.1c1,0.2,1.9,0.5,2.9,0.9
		c0.2,0.1,0.5,0,0.6-0.2c1.7-4.6,3.1-9.3,4.3-14.1c0.4-0.7,0.7-1.5,1-2.2C89.2,134.8,89.7,133.4,90,132.1z"/>
	<path class="st3" d="M96.4,95c-8,1.5-8,10.3-5.8,16.7s7.3,14.1,11.5,14.3s6-10.2,6-10.2s5.3,7.1,8.6,5.1s-1.7-14.5-5.8-18.6
		C105,96.3,100.6,94.2,96.4,95z"/>
	<path class="st6" d="M91.7,99.5c0.2,1.9,7.2,15.1,15.7,15.9c2.8,0.3,4.8-14.7,4.8-14.7l0.4-1.1l5.7-15l-16.5-14.3l-2.4-1.9
		c0,0-1.3,4.2-2.8,9.5l-0.2,0.8c-0.1,0.3-0.2,0.6-0.3,0.9c-0.2,0.8-0.5,1.6-0.7,2.4c-0.2,0.6-0.4,1.2-0.5,1.9s-0.3,1.3-0.5,1.9
		C93.1,90.2,92.2,94.8,91.7,99.5z"/>
	<path class="st5" d="M96.5,77.9c1.9,9.3,7.8,17.2,16.1,21.7l5.7-15l-16.5-14.3l-2.4-1.9C99.3,68.4,98.1,72.6,96.5,77.9z"/>
	<path class="st6" d="M142.9,62.9C141.4,91,124.5,93.3,118.4,93c-5.5-0.3-24.2-2-25.6-30.1s12.1-36.3,24.7-36.3
		S144.4,34.8,142.9,62.9z"/>
	<path class="st5" d="M139.2,57.9c-0.6-0.1-1.3-0.3-1.9-0.5c-0.7-0.1-1.3-0.4-1.8-0.9c-0.3-0.4-0.2-0.9,0.1-1.2
		c0.7-0.6,1.6-0.7,2.5-0.4c0.9,0.2,1.7,0.7,2.2,1.4c0.3,0.5,0.2,1.2-0.3,1.5C139.7,57.9,139.4,57.9,139.2,57.9z"/>
	<path class="st5" d="M121.2,56.7c0.6-0.1,1.3-0.1,1.9-0.3c0.7,0,1.4-0.2,1.9-0.6c0.3-0.3,0.3-0.8,0.1-1.2c-0.6-0.7-1.5-1-2.4-0.8
		c-0.9,0.1-1.8,0.5-2.4,1.1c-0.4,0.5-0.3,1.1,0.1,1.5C120.7,56.6,120.9,56.7,121.2,56.7z"/>
	<path class="st5" d="M124.1,63.6c0-0.1-0.1,0.1-0.2,0.2c0,1.9-0.4,4.1-2.2,4.6c0,0,0,0.1,0,0.1C123.9,68.3,124.4,65.4,124.1,63.6z"
		/>
	<path class="st5" d="M122.5,61.5c-3.1-0.4-3.6,5.8-0.8,6.1S125,61.9,122.5,61.5z"/>
	<path class="st5" d="M121.2,61.8c-0.6,0.3-1.1,0.9-1.8,0.9s-1.3-0.7-1.7-1.4c0-0.1-0.1,0-0.1,0.1c-0.1,1.2,0.2,2.4,1.5,2.7
		s2.1-0.7,2.5-1.9C121.6,62,121.5,61.6,121.2,61.8z"/>
	<path class="st5" d="M134.5,64.1c0-0.1,0.1,0.1,0.1,0.2c-0.3,1.9-0.2,4.1,1.5,4.9c0,0,0,0.1,0,0.1C134,68.8,134,65.9,134.5,64.1z"
		/>
	<path class="st5" d="M136.4,62.3c3.1,0.1,2.7,6.2-0.1,6.2S133.8,62.3,136.4,62.3z"/>
	<path class="st5" d="M137.7,62.8c0.5,0.4,0.9,1,1.5,1s1.2-0.6,1.7-1.2c0-0.1,0.1,0,0.1,0.1c0,1.2-0.5,2.4-1.6,2.5s-1.8-0.9-2-2.1
		C137.3,63,137.5,62.6,137.7,62.8z"/>
	<path class="st5" d="M122.7,78.3c0.4,0.5,0.8,1.2,1.5,1.3c0.7,0.1,1.4,0,2.1-0.2c0,0,0.1,0,0.1,0.1c0,0,0,0,0,0.1
		c-0.7,0.7-1.6,1-2.5,0.7c-0.8-0.3-1.3-1.1-1.3-1.9C122.4,78.3,122.6,78.2,122.7,78.3z"/>
	<path class="st5" d="M130.8,73c0,0,0.2,2.9,0.1,4.2c0,0.1-5,0.8-6.9-2.7c0-0.1,0-0.2,0.1-0.2c0,0,0.1,0,0.1,0
		c1.6,1.3,3.6,2.1,5.7,2.1c0.1-0.4-0.5-4.9-0.3-4.9c1,0.2,2,0.5,3,0.9c-0.2-6-1.3-12-1.4-17.9c0-0.1,0.1-0.2,0.1-0.2
		s0.2,0.1,0.2,0.1l0,0c1.6,6.1,2,13.1,2.4,19.3C134,74.5,131.3,73.2,130.8,73z"/>
	<path class="st5" d="M94.8,64.1c6.9,0.7,11.6-20.1,12.2-22.7c-0.3,1.6-1.6,10.3-1,10.7c0.7,0.1,1.5,0,2.2-0.1l0,0
		c0.1-1,0.4-2.1,0.7-3.1c0.1-0.5,0,1.1,0.1,3c0.4-0.1,0.8-0.1,1.3-0.2c0.2-2.2,0.7-4.4,1.5-6.5c0.3-0.8,0,2.9,0.4,6.2
		c4.9-0.6,11.9-1.4,18.3-0.8c1.7,0.2,3.2,0.4,4.5,0.6c0.4-2.6,0.4-5.3,0.5-4.7c0.3,1.6,0.5,3.2,0.4,4.9c0.7,0.1,1.4,0.3,1.9,0.4
		c0.6-3.6-0.3-9.6,0.2-8.6c1.4,2.9,2.1,6.1,2.3,9.4c2.4,0.8,3,1.4,3.2,0.7c0.3-1.1,0.2-11.4-6.7-19.9c-7.5-9.2-24.3-13.5-35.5-2.3
		c0,0-8.6,4.1-11,12.3S90.8,63.7,94.8,64.1z"/>
	<path class="st6" d="M97.3,63.2c0,0-4.9-9.5-9.1-7.9c-4.3,1.6-1.4,14.9,3,17.2c2.2,1.4,5.2,0.7,6.6-1.5c0-0.1,0.1-0.1,0.1-0.2
		L97.3,63.2z"/>
	<path class="st5" d="M89.1,59.1C89.1,59.1,89,59.1,89.1,59.1c-0.1,0.1,0,0.1,0,0.1c3.1,1.8,4.4,5,5.1,8.3c-0.8-1.3-2-2.2-3.8-1.3
		c-0.1,0,0,0.2,0.1,0.2c1.2-0.2,2.4,0.4,3,1.5c0.5,0.9,0.9,1.8,1.2,2.8c0.1,0.3,0.7,0.2,0.6-0.1v-0.1C95.9,66.4,93.5,60.1,89.1,59.1
		z"/>
</g>
<g id="Desk">
	<polyline class="st5" points="180.8,219.2 260.6,219.3 340.3,219.5 260.6,219.8 180.8,219.9 	"/>
	<path class="st5" d="M-298,219.5"/>
</g>
<g id="Device_2">
	<rect x="155.6" y="217" class="st7" width="111.2" height="5"/>
	<rect x="155.6" y="217" class="st5" width="56" height="5"/>
	<polygon class="st8" points="210.2,222 318.6,222 333.9,148.4 225.5,148.4 	"/>
	<path class="st3" d="M263.7,186.9c-0.5,3.5,2,6.7,5.5,7.2c0.3,0,0.7,0.1,1,0.1c4.1-0.1,7.5-3.2,8-7.2c0.5-3.5-2-6.7-5.5-7.2
		c-0.3,0-0.7-0.1-1-0.1C267.6,179.7,264.2,182.8,263.7,186.9z"/>
</g>
<g id="Device_1">
	<path class="st7" d="M-286.4,112.2"/>
	<path class="st8" d="M-290.9,112.2"/>
</g>
</svg>
